<svg xmlns="http://www.w3.org/2000/svg" width="556" height="158" viewBox="0 0 556 158">
  <g fill="none">
    <polygon fill="#D39E46" points="156.427 76.597 155.841 75.181 119.57 76.448 155.33 73.947 154.75 72.549 119.618 75.006 154.26 71.364 153.687 69.981 119.476 73.577 153.212 68.835 152.645 67.465 119.27 72.157 152.184 66.352 151.622 64.994 118.94 70.757 151.17 63.905 150.612 62.557 118.713 69.338 150.171 61.493 149.616 60.152 118.341 67.952 149.183 59.106 148.63 57.771 117.898 66.585 148.202 56.737 147.651 55.407 117.521 65.198 147.228 54.385 146.678 53.057 117.035 63.848 146.257 52.041 145.707 50.714 116.415 62.55 145.285 49.694 144.735 48.368 116.044 61.144 144.316 47.354 143.766 46.025 115.283 59.917 143.34 45 142.789 43.667 114.575 58.668 142.358 42.627 141.804 41.29 113.881 57.412 141.367 40.235 140.81 38.891 113.04 56.244 140.364 37.812 139.803 36.459 112.406 54.94 139.35 35.364 138.785 34 111.41 53.889 138.316 32.868 137.746 31.492 110.596 52.704 137.263 30.326 136.688 28.936 109.598 51.667 136.187 27.727 135.604 26.32 108.639 50.599 135.083 25.062 134.493 23.637 107.73 49.48 133.549 22.744 132.124 22.153 106.669 48.513 130.87 21.633 129.462 21.051 105.629 47.523 128.259 20.552 126.869 19.977 104.443 46.703 125.701 19.493 124.325 18.923 103.417 45.685 123.2 18.457 121.835 17.892 102.181 44.943 120.734 17.436 119.381 16.875 101.012 44.109 118.308 16.431 116.963 15.874 99.753 43.416 115.906 15.437 114.569 14.882 98.548 42.631 113.53 14.452 112.198 13.9 97.248 42.02 111.169 13.475 109.841 12.924 96.015 41.274 108.824 12.503 107.497 11.953 94.692 40.714 106.482 11.533 105.156 10.984 93.33 40.254 104.136 10.562 102.808 10.011 92.01 39.683 101.788 9.588 100.457 9.038 90.638 39.26 99.426 8.611 98.092 8.058 89.224 38.984 97.042 7.624 95.701 7.068 87.853 38.548 94.637 6.627 93.289 6.069 86.45 38.243 92.202 5.619 90.844 5.056 85.029 38.035 89.728 4.594 88.358 4.027 83.617 37.773 87.213 3.553 85.83 2.979 82.181 37.7 84.643 2.488 83.244 1.909 80.751 37.56 82.014 1.399 80.598 .812 79.388 35.484 79.388 .312 78.636 0 77.952 .283 77.952 37.401 76.674 .812 75.258 1.399 76.518 37.455 74.033 1.906 72.634 2.486 75.097 37.714 71.447 2.978 70.063 3.55 73.657 37.744 68.918 4.024 67.548 4.592 72.25 38.053 66.433 5.054 65.074 5.617 70.84 38.317 63.984 6.068 62.635 6.627 69.422 38.553 61.571 7.068 60.23 7.623 68.026 38.889 59.184 8.056 57.849 8.609 66.662 39.34 56.815 9.038 55.485 9.588 65.265 39.685 54.464 10.011 53.136 10.561 63.943 40.252 52.116 10.983 50.789 11.533 62.585 40.723 49.775 11.953 48.448 12.502 61.292 41.35 47.427 12.925 46.098 13.476 59.978 41.93 45.074 13.9 43.741 14.452 58.744 42.665 42.703 14.882 41.365 15.436 57.518 43.414 40.308 15.874 38.963 16.431 56.19 43.998 37.894 16.874 36.541 17.434 55.177 45.062 35.436 17.892 34.072 18.457 53.829 45.648 32.947 18.923 31.571 19.493 52.828 46.699 30.403 19.976 29.013 20.552 51.667 47.549 27.809 21.051 26.402 21.633 50.61 48.521 25.147 22.153 23.722 22.744 49.549 49.489 22.779 23.637 22.188 25.062 48.633 50.599 21.667 26.32 21.085 27.727 47.605 51.605 20.585 28.933 20.009 30.323 46.697 52.717 19.526 31.489 18.957 32.865 45.899 53.916 18.487 34 17.922 35.364 44.899 54.964 17.467 36.461 16.907 37.814 44.232 56.246 16.46 38.892 15.903 40.237 43.393 57.414 15.467 41.292 14.913 42.629 42.709 58.677 14.482 43.669 13.93 45.001 41.963 59.906 13.505 46.027 12.955 47.356 41.375 61.216 12.533 48.375 11.983 49.702 40.787 62.526 11.562 50.719 11.013 52.045 40.225 63.847 10.592 53.062 10.042 54.389 39.803 65.221 9.618 55.413 9.067 56.743 39.312 66.57 8.64 57.776 8.086 59.111 38.963 67.964 7.653 60.157 7.098 61.499 38.571 69.346 6.657 62.562 6.099 63.912 38.253 70.746 5.649 64.998 5.086 66.356 38.012 72.161 4.625 67.469 4.058 68.838 37.815 73.583 3.583 69.985 3.01 71.369 37.667 75.01 2.519 72.553 1.94 73.952 37.583 76.444 1.431 75.181 .845 76.597 37.469 77.876 .314 77.877 0 78.636 .28 79.312 37.615 79.311 .812 80.597 1.399 82.013 37.415 80.754 1.907 83.238 2.486 84.637 37.691 82.175 2.978 85.824 3.55 87.208 37.864 83.6 4.026 88.357 4.594 89.727 38.036 85.025 5.056 90.842 5.619 92.2 38.228 86.449 6.068 93.287 6.627 94.635 38.571 87.843 7.068 95.7 7.624 97.041 38.887 89.245 8.057 98.086 8.609 99.421 39.256 90.632 9.037 100.453 9.587 101.783 39.723 91.99 10.011 102.805 10.561 104.132 40.218 93.337 10.982 105.15 11.531 106.476 40.769 94.663 11.953 107.494 12.502 108.821 41.424 95.942 12.926 109.842 13.476 111.17 41.95 97.283 13.901 112.197 14.453 113.529 42.652 98.536 14.883 114.568 15.438 115.906 43.407 99.757 15.875 116.961 16.432 118.307 44.073 101.035 16.876 119.379 17.437 120.733 44.964 102.165 17.892 121.833 18.457 123.197 45.706 103.4 18.924 124.324 19.494 125.7 46.715 104.433 19.978 126.869 20.554 128.259 47.491 105.656 21.052 129.461 21.635 130.869 48.493 106.685 22.154 132.121 22.744 133.546 49.591 107.621 23.643 134.491 25.068 135.082 50.612 108.629 26.328 135.603 27.734 136.185 51.641 109.633 28.941 136.686 30.332 137.261 52.694 110.61 31.496 137.744 32.872 138.314 53.87 111.437 34.002 138.782 35.366 139.347 55.033 112.279 36.467 139.803 37.821 140.364 56.191 113.128 38.894 140.808 40.239 141.366 57.424 113.864 41.294 141.803 42.632 142.357 58.718 114.494 43.675 142.79 45.007 143.341 59.883 115.361 46.03 143.765 47.359 144.315 61.251 115.83 48.381 144.739 49.708 145.288 62.523 116.503 50.723 145.708 52.049 146.258 63.892 116.948 53.071 146.681 54.398 147.231 65.217 117.503 55.421 147.655 56.751 148.206 66.567 117.995 57.781 148.632 59.116 149.185 67.949 118.385 60.162 149.619 61.502 150.174 69.353 118.685 62.567 150.615 63.916 151.173 70.75 119.016 65.001 151.624 66.359 152.186 72.172 119.219 67.475 152.648 68.845 153.215 73.584 119.487 69.989 153.689 71.372 154.262 75.018 119.582 72.559 154.754 73.958 155.333 76.448 119.706 75.187 155.842 76.603 156.429 77.952 117.756 77.952 156.988 78.636 157.271 79.388 156.959 79.388 119.594 80.675 156.427 82.09 155.84 80.826 119.666 83.32 155.331 84.718 154.751 82.266 119.675 85.901 154.262 87.284 153.689 83.678 119.374 88.433 153.212 89.803 152.646 85.119 119.309 90.915 152.185 92.272 151.623 86.51 118.936 93.363 151.17 94.711 150.612 87.922 118.671 95.776 150.171 97.117 149.616 89.322 118.356 98.163 149.182 99.498 148.629 90.709 117.984 100.529 148.203 101.859 147.651 92.065 117.513 102.881 147.228 104.209 146.678 93.387 116.945 105.23 146.254 106.557 145.705 94.77 116.536 107.571 145.286 108.897 144.736 96.031 115.838 109.92 144.312 111.249 143.761 97.343 115.253 112.276 143.336 113.608 142.785 98.653 114.662 114.643 142.356 115.98 141.801 99.848 113.859 117.036 141.365 118.381 140.807 101.002 112.997 119.46 140.36 120.813 139.799 102.359 112.442 121.907 139.346 123.271 138.782 103.32 111.322 124.407 138.311 125.783 137.741 104.581 110.605 126.948 137.258 128.338 136.682 105.71 109.717 129.541 136.184 130.947 135.601 106.685 108.654 132.205 135.081 133.63 134.49 107.708 107.647 134.527 133.546 135.118 132.121 108.779 106.685 135.637 130.869 136.219 129.461 109.711 105.594 136.719 128.256 137.295 126.866 110.613 104.476 137.777 125.7 138.348 124.324 111.533 103.374 138.815 123.194 139.38 121.831 112.322 102.172 139.836 120.731 140.396 119.377 113.203 101.035 140.84 118.304 141.397 116.959 113.871 99.759 141.835 115.904 142.389 114.566 114.664 98.559 142.818 113.529 143.371 112.197 115.239 97.24 143.797 111.167 144.348 109.838 115.933 95.981 144.77 108.819 145.319 107.493 116.512 94.667 145.74 106.476 146.289 105.15 117.018 93.324 146.711 104.13 147.261 102.803 117.609 92.011 147.684 101.783 148.235 100.453 117.922 90.604 148.664 99.417 149.216 98.083 118.47 89.267 149.648 97.041 150.203 95.701 118.659 87.834 150.645 94.633 151.204 93.285 118.975 86.434 151.655 92.196 152.217 90.837 119.272 85.029 152.679 89.724 153.246 88.354 119.426 83.602 153.722 87.206 154.295 85.822 119.621 82.178 154.786 84.637 155.365 83.238 119.775 80.75 155.874 82.011 156.46 80.595 119.67 79.31 156.992 79.309 157.271 78.636 156.956 77.874 119.861 77.875"/>
    <path fill="#FFFFFF" d="M118.234,72.075 L114.676,51.894 L112.244,49.364 C115.008,47.811 116.876,44.852 116.876,41.456 C116.876,36.451 112.819,32.392 107.812,32.392 C105.183,32.392 103.936,37.391 104.067,42.139 L85.69,36.094 L78.636,47.333 L71.586,36.094 L53.205,42.137 C53.336,37.389 52.089,32.39 49.46,32.39 C44.453,32.39 40.4,36.454 40.4,41.454 C40.4,43.7 41.217,45.754 42.569,47.338 L39.038,72.073 L47.848,85.146 L48.156,91.203 L63.129,92.678 L48.23,92.678 L48.601,99.986 L67.723,101.871 L48.697,101.871 L48.778,103.472 L49.088,103.549 L57.176,114.012 L65.578,124.88 L72.109,119.095 L78.635,123.813 L85.161,119.095 L91.687,124.88 L100.089,114.012 L108.181,103.549 L108.491,103.472 L108.572,101.871 L89.553,101.871 L108.67,99.987 L108.586,101.638 L109.042,92.678 L94.148,92.678 L109.116,91.203 L109.424,85.146 L118.234,72.075 Z M53.146,62.644 L50.487,63.179 C50.487,63.179 63.48,51.013 63.827,68.246 L63.202,68.721 C63.202,68.721 62.497,68.195 61.335,68.591 C60.168,68.992 55.917,69.136 53.146,62.644 Z M48.464,97.277 L48.379,95.595 L65.426,97.277 L48.464,97.277 Z M105.412,104.237 L97.585,107.002 L86.668,110.857 L82.652,110.117 L78.636,109.376 L74.62,110.117 L70.604,110.857 L59.691,107.002 L51.864,104.238 L70.604,108.886 L78.636,102.81 L86.668,108.886 L105.412,104.237 Z M108.893,95.596 L108.808,97.277 L91.851,97.277 L108.893,95.596 Z M84.611,92.038 L78.636,102.608 L72.661,92.038 L62.091,86.065 L70.363,88.15 L78.635,87.934 L86.907,88.15 L95.179,86.065 L84.611,92.038 Z M104.129,62.644 C101.359,69.133 97.108,68.99 95.94,68.591 C94.773,68.193 94.073,68.721 94.073,68.721 L93.448,68.244 C93.795,51.014 106.783,63.177 106.783,63.177 L104.129,62.644 Z"/>
    <g fill="#000000" transform="translate(177 43)">
      <path d="M359.572,19.381 C370.659,19.351 378.392,24.702 378.392,36.271 L378.392,69.453 L369.959,69.453 L369.959,37.337 C369.959,29.377 365.603,25.784 358.371,25.795 C352.489,25.8 347.829,27.399 344.628,28.899 L344.628,69.453 L336.236,69.453 L336.236,25.123 C341.911,22.193 350.269,19.405 359.572,19.381 Z M324.569,43.585 C324.569,63.11 317.151,70.433 301.547,70.433 C284.95,70.433 278.091,63.919 278.091,43.585 C278.091,25.98 286.487,19.447 301.529,19.447 C316.688,19.448 324.569,26.281 324.569,43.585 Z M286.522,43.585 C286.522,60.532 290.393,64.235 301.528,64.235 C311.59,64.235 316.137,59.766 316.137,43.585 C316.137,29.662 311.58,25.558 301.528,25.558 C291.329,25.559 286.522,29.518 286.522,43.585 Z M257.602,14.241 L257.602,2.984 L266.392,2.984 L266.392,14.241 L257.602,14.241 Z M257.781,69.453 L257.781,20.449 L266.213,20.449 L266.213,69.453 L257.781,69.453 Z M249.531,62.291 L249.531,69.443 L208.962,69.443 L208.962,0.838 L218.001,0.838 L218.001,62.29 L249.531,62.29 L249.531,62.291 Z M173.803,19.461 C184.477,19.444 193.037,23.75 193.036,37.241 L193.036,65.677 C186.413,69.284 176.807,70.351 168.106,70.351 C156.304,70.351 151.182,65.095 151.182,53.15 C151.182,44.074 157.676,40.267 169.815,40.363 L184.605,40.363 L184.605,37.246 C184.605,28.344 179.387,25.459 172.057,25.485 C167.261,25.502 161.569,26.757 155.674,28.475 L153.848,23.063 C160.334,21.013 167.442,19.471 173.803,19.461 Z M159.255,53.199 C159.255,61.76 162.225,64.73 169.152,64.73 C174.585,64.73 180.134,64.181 184.605,61.908 L184.605,45.207 L170.503,45.207 C162.96,45.207 159.255,48.119 159.255,53.199 Z M142.576,20.407 L142.576,26.517 L126.718,26.517 L126.718,56.919 C126.719,61.47 128.02,64.251 135.382,64.177 C137.205,64.159 139.295,63.991 141.786,63.652 L142.659,69.599 C139.43,70.072 136.353,70.39 133.555,70.39 C123.076,70.49 118.286,66.47 118.286,56.96 L118.286,26.558 L110.741,26.558 L110.741,20.449 L118.674,20.449 L119.482,7.668 L126.717,7.668 L126.717,20.408 L142.576,20.408 L142.576,20.407 Z M82.565,19.461 C93.239,19.444 101.799,23.75 101.798,37.241 L101.798,65.677 C95.175,69.284 85.569,70.351 76.868,70.351 C65.066,70.351 59.944,65.095 59.944,53.15 C59.944,44.074 66.438,40.267 78.577,40.363 L93.367,40.363 L93.367,37.246 C93.367,28.344 88.149,25.459 80.82,25.485 C76.023,25.502 70.331,26.757 64.436,28.475 L62.61,23.063 C69.097,21.013 76.205,19.471 82.565,19.461 Z M68.018,53.199 C68.018,61.76 70.988,64.73 77.915,64.73 C83.348,64.73 88.897,64.181 93.368,61.908 L93.368,45.207 L79.266,45.207 C71.723,45.207 68.018,48.119 68.018,53.199 Z M53.169,29.06 L53.169,41.398 C53.169,61.462 42.947,69.453 27.701,69.443 L0.42,69.443 L0.42,0.838 L27.281,0.838 C43.629,0.838 53.169,10.273 53.169,29.06 Z M9.459,62.291 L27.701,62.291 C38,62.291 44.128,57.371 44.128,41.398 L44.128,29.06 C44.128,13.918 38.082,8.004 27.281,8.004 L9.459,8.004 L9.459,62.291 L9.459,62.291 Z"/>
    </g>
  </g>
</svg>
